<?xml version="1.0" encoding="UTF-8" standalone="no"?>
<svg
   width="25.135418mm"
   height="29.396206mm"
   viewBox="0 0 25.135418 29.396205"
   version="1.1"
   id="svg8"
   inkscape:version="1.1 (c68e22c387, 2021-05-23)"
   sodipodi:docname="memorize_position.svg"
   xmlns:inkscape="http://www.inkscape.org/namespaces/inkscape"
   xmlns:sodipodi="http://sodipodi.sourceforge.net/DTD/sodipodi-0.dtd"
   xmlns="http://www.w3.org/2000/svg"
   xmlns:svg="http://www.w3.org/2000/svg"
   xmlns:rdf="http://www.w3.org/1999/02/22-rdf-syntax-ns#"
   xmlns:cc="http://creativecommons.org/ns#"
   xmlns:dc="http://purl.org/dc/elements/1.1/">
  <defs
     id="defs2">
    <inkscape:perspective
       sodipodi:type="inkscape:persp3d"
       inkscape:vp_x="-9.5681072 : 4.666678 : 0"
       inkscape:vp_y="-1.2859588e-14 : 70.004339 : 0"
       inkscape:vp_z="9.5681072 : 4.6666782 : 0"
       inkscape:persp3d-origin="126.227 : 216.55299 : 1"
       id="perspective1170-3-3" />
    <inkscape:perspective
       sodipodi:type="inkscape:persp3d"
       inkscape:vp_x="-1.2226 : -0.59630196 : 0"
       inkscape:vp_y="99.885723 : 558.15669 : 1"
       inkscape:vp_z="1.2226 : -0.59630196 : 0"
       inkscape:persp3d-origin="100.51392 : 567.13909 : 1"
       id="perspective1170-9-1-2" />
    <inkscape:perspective
       sodipodi:type="inkscape:persp3d"
       inkscape:vp_x="-1.2226 : -0.59630196 : 0"
       inkscape:vp_y="99.902973 : 560.20623 : 1"
       inkscape:vp_z="1.2226 : -0.59630196 : 0"
       inkscape:persp3d-origin="100.53119 : 569.18863 : 1"
       id="perspective1170-9-1" />
  </defs>
  <sodipodi:namedview
     id="base"
     pagecolor="#ffffff"
     bordercolor="#666666"
     borderopacity="1.0"
     inkscape:pageopacity="0.0"
     inkscape:pageshadow="2"
     inkscape:zoom="2.6932313"
     inkscape:cx="-49.940011"
     inkscape:cy="45.670047"
     inkscape:document-units="mm"
     inkscape:current-layer="layer1"
     inkscape:document-rotation="0"
     showgrid="true"
     inkscape:snap-bbox="true"
     inkscape:object-paths="true"
     inkscape:snap-intersection-paths="true"
     inkscape:snap-grids="true"
     inkscape:snap-smooth-nodes="true"
     showguides="true"
     inkscape:guide-bbox="true"
     inkscape:snap-nodes="false"
     inkscape:snap-object-midpoints="true"
     inkscape:window-width="1920"
     inkscape:window-height="1011"
     inkscape:window-x="0"
     inkscape:window-y="32"
     inkscape:window-maximized="1"
     inkscape:snap-page="true"
     inkscape:snap-others="false"
     inkscape:bbox-paths="true"
     inkscape:bbox-nodes="true"
     fit-margin-top="0"
     fit-margin-left="0"
     fit-margin-right="0"
     fit-margin-bottom="0"
     inkscape:pagecheckerboard="0">
    <inkscape:grid
       type="xygrid"
       id="grid835"
       originx="-304.93228"
       originy="-216.55894" />
    <sodipodi:guide
       position="-154.72682,463.1786"
       orientation="0,-1"
       id="guide3859" />
  </sodipodi:namedview>
  <metadata
     id="metadata5">
    <rdf:RDF>
      <cc:Work
         rdf:about="">
        <dc:format>image/svg+xml</dc:format>
        <dc:type
           rdf:resource="http://purl.org/dc/dcmitype/StillImage" />
        <dc:title />
      </cc:Work>
    </rdf:RDF>
  </metadata>
  <g
     inkscape:label="Layer 1"
     inkscape:groupmode="layer"
     id="layer1"
     transform="translate(-304.9323,-216.55894)">
    <path
       id="rect833-9-41-4-7-4-4"
       style="font-variation-settings:normal;vector-effect:none;fill:#57e389;fill-opacity:1;stroke:#000000;stroke-width:1.32292;stroke-linecap:butt;stroke-linejoin:miter;stroke-miterlimit:4;stroke-dasharray:none;stroke-dashoffset:0;stroke-opacity:1;stop-color:#000000"
       d="m 305.59376,217.47667 11.90625,3.96874 11.90625,-3.96874 v 23.81249 l -11.90625,3.96875 -11.90625,-3.96875 z"
       sodipodi:nodetypes="ccccccc" />
    <g
       id="g7020"
       transform="matrix(0.05887938,0,0,0.05887938,308.75643,223.43198)"
       style="stroke-width:5.64917;stroke-miterlimit:4;stroke-dasharray:none">
      <g
         id="g6963"
         style="stroke-width:5.64917;stroke-miterlimit:4;stroke-dasharray:none">
        <g
           id="g6961"
           style="stroke-width:5.64917;stroke-miterlimit:4;stroke-dasharray:none" />
      </g>
      <g
         id="g6965"
         style="stroke-width:5.64917;stroke-miterlimit:4;stroke-dasharray:none" />
      <g
         id="g6967"
         style="stroke-width:5.64917;stroke-miterlimit:4;stroke-dasharray:none" />
      <g
         id="g6969"
         style="stroke-width:5.64917;stroke-miterlimit:4;stroke-dasharray:none" />
      <g
         id="g6971"
         style="stroke-width:5.64917;stroke-miterlimit:4;stroke-dasharray:none" />
      <g
         id="g6973"
         style="stroke-width:5.64917;stroke-miterlimit:4;stroke-dasharray:none" />
      <g
         id="g6975"
         style="stroke-width:5.64917;stroke-miterlimit:4;stroke-dasharray:none" />
      <g
         id="g6977"
         style="stroke-width:5.64917;stroke-miterlimit:4;stroke-dasharray:none" />
      <g
         id="g6979"
         style="stroke-width:5.64917;stroke-miterlimit:4;stroke-dasharray:none" />
      <g
         id="g6981"
         style="stroke-width:5.64917;stroke-miterlimit:4;stroke-dasharray:none" />
      <g
         id="g6983"
         style="stroke-width:5.64917;stroke-miterlimit:4;stroke-dasharray:none" />
      <g
         id="g6985"
         style="stroke-width:5.64917;stroke-miterlimit:4;stroke-dasharray:none" />
      <g
         id="g6987"
         style="stroke-width:5.64917;stroke-miterlimit:4;stroke-dasharray:none" />
      <g
         id="g6989"
         style="stroke-width:5.64917;stroke-miterlimit:4;stroke-dasharray:none" />
      <g
         id="g6991"
         style="stroke-width:5.64917;stroke-miterlimit:4;stroke-dasharray:none" />
      <g
         id="g6993"
         style="stroke-width:5.64917;stroke-miterlimit:4;stroke-dasharray:none" />
    </g>
    <path
       id="path904-7"
       style="font-variation-settings:normal;opacity:1;vector-effect:none;fill:none;fill-opacity:1;stroke:#000000;stroke-width:0.911039;stroke-linecap:round;stroke-linejoin:round;stroke-miterlimit:4;stroke-dasharray:none;stroke-dashoffset:0;stroke-opacity:1;stop-color:#000000;stop-opacity:1"
       d="m 319.23376,232.87855 c -1.09318,-1.09318 -3.27953,-0.91098 -3.46173,1.27538 m 2.06675,4.2839 c 0,-1.45757 -1.27537,-1.63976 -1.82196,-1.27537 m -5.43172,1.28351 c 0,-1.45757 1.27537,-1.63977 1.82196,-1.27537 m -3.2958,-4.22305 c 1.09319,-1.09318 3.27953,-0.91098 3.46173,1.27537 m 1.63977,-5.46588 v 10.0208 m 5.47757,-7.14559 c 0,-1.0288 -0.74498,-1.88694 -1.72377,-2.06319 -0.17629,-0.9788 -1.03439,-1.72378 -2.06319,-1.72378 -0.69329,0 -1.30876,0.33851 -1.69061,0.8587 -0.38186,-0.52019 -0.99734,-0.8587 -1.69062,-0.8587 -1.0288,0 -1.88689,0.74498 -2.06319,1.72374 -0.9788,0.17629 -1.72378,1.03443 -1.72378,2.06319 0,0.32971 0.11945,0.91097 0.44235,1.24924 -0.27709,0.35542 -0.44235,0.80211 -0.44235,1.28667 0,0.73248 0.38259,1.40108 0.98647,1.77843 -0.0931,0.23983 -0.14118,0.49591 -0.14118,0.75746 0,0.72492 0.3812,1.39991 0.98837,1.7795 0.1304,0.79344 0.82534,1.40371 1.65141,1.40371 0.6278,0 1.5228,-0.67776 1.99252,-1.07411 0.46971,0.39635 1.36471,1.07411 1.99251,1.07411 0.82608,0 1.52102,-0.61027 1.65141,-1.40368 0.60717,-0.37958 0.98837,-1.05458 0.98837,-1.77948 0,-0.2616 -0.0481,-0.51765 -0.14117,-0.75748 0.60391,-0.37735 0.98645,-1.04593 0.98645,-1.77842 0,-0.48457 -0.16526,-0.93126 -0.44235,-1.28667 0.32287,-0.33826 0.44235,-0.91957 0.44235,-1.24924 z" />
    <path
       d="m 325.13611,226.51243 q 0,-0.7091 -0.50172,-1.21081 -0.50172,-0.50173 -1.21081,-0.50173 -0.70908,0 -1.21082,0.50173 -0.5017,0.50171 -0.5017,1.21081 0,0.70909 0.5017,1.21081 0.50174,0.5017 1.21082,0.5017 0.70909,0 1.21081,-0.5017 0.50172,-0.50172 0.50172,-1.21081 z m 1.71252,0 q 0,0.72915 -0.22076,1.19742 l -2.435,5.17771 q -0.10702,0.22075 -0.31774,0.34784 -0.21072,0.1271 -0.45155,0.1271 -0.24082,0 -0.45154,-0.1271 -0.21072,-0.12709 -0.31106,-0.34784 l -2.44169,-5.17771 q -0.22075,-0.46827 -0.22075,-1.19742 0,-1.41819 1.00342,-2.42162 1.00344,-1.00343 2.42162,-1.00343 1.41818,0 2.42162,1.00343 1.00343,1.00343 1.00343,2.42162 z"
       id="path3029"
       inkscape:connector-curvature="0"
       style="fill:currentColor;stroke-width:0.264583" />
  </g>
</svg>
