<?xml version="1.0" encoding="UTF-8" standalone="no"?>
<svg
   xmlns:dc="http://purl.org/dc/elements/1.1/"
   xmlns:cc="http://creativecommons.org/ns#"
   xmlns:rdf="http://www.w3.org/1999/02/22-rdf-syntax-ns#"
   xmlns:svg="http://www.w3.org/2000/svg"
   xmlns="http://www.w3.org/2000/svg"
   xmlns:sodipodi="http://sodipodi.sourceforge.net/DTD/sodipodi-0.dtd"
   xmlns:inkscape="http://www.inkscape.org/namespaces/inkscape"
   width="97.137611mm"
   height="76.16748mm"
   viewBox="0 0 97.137611 76.16748"
   version="1.1"
   id="svg4389"
   inkscape:version="1.0.2 (e86c870879, 2021-01-15)"
   sodipodi:docname="clouds3.svg">
  <defs
     id="defs4383">
    <inkscape:perspective
       sodipodi:type="inkscape:persp3d"
       inkscape:vp_x="-8.3118007 : 4.0539357 : 0"
       inkscape:vp_y="-1.1171105e-14 : 60.812656 : 0"
       inkscape:vp_z="8.3118007 : 4.053936 : 0"
       inkscape:persp3d-origin="30.492244 : 26.316672 : 1"
       id="perspective1170-3-4-4-2" />
    <inkscape:perspective
       sodipodi:type="inkscape:persp3d"
       inkscape:vp_x="-8.3118007 : 4.0539357 : 0"
       inkscape:vp_y="-1.1171105e-14 : 60.812656 : 0"
       inkscape:vp_z="8.3118007 : 4.053936 : 0"
       inkscape:persp3d-origin="88.610833 : 42.983391 : 1"
       id="perspective1170-3-4-7" />
    <inkscape:perspective
       sodipodi:type="inkscape:persp3d"
       inkscape:vp_x="-8.3118007 : 4.0539357 : 0"
       inkscape:vp_y="-1.1171105e-14 : 60.812656 : 0"
       inkscape:vp_z="8.3118007 : 4.053936 : 0"
       inkscape:persp3d-origin="57.743909 : 42.548251 : 1"
       id="perspective1170-3-4-4-1-73" />
  </defs>
  <sodipodi:namedview
     id="base"
     pagecolor="#ffffff"
     bordercolor="#666666"
     borderopacity="1.0"
     inkscape:pageopacity="0.0"
     inkscape:pageshadow="2"
     inkscape:zoom="0.49497475"
     inkscape:cx="-299.67814"
     inkscape:cy="15.483059"
     inkscape:document-units="mm"
     inkscape:current-layer="layer1"
     inkscape:document-rotation="0"
     showgrid="false"
     inkscape:window-width="1530"
     inkscape:window-height="1016"
     inkscape:window-x="100"
     inkscape:window-y="27"
     inkscape:window-maximized="0"
     inkscape:snap-nodes="false"
     inkscape:snap-others="false"
     inkscape:snap-bbox="true"
     inkscape:bbox-paths="true"
     inkscape:bbox-nodes="true"
     inkscape:snap-bbox-edge-midpoints="true"
     inkscape:snap-page="true" />
  <metadata
     id="metadata4386">
    <rdf:RDF>
      <cc:Work
         rdf:about="">
        <dc:format>image/svg+xml</dc:format>
        <dc:type
           rdf:resource="http://purl.org/dc/dcmitype/StillImage" />
        <dc:title />
      </cc:Work>
    </rdf:RDF>
  </metadata>
  <g
     inkscape:label="Layer 1"
     inkscape:groupmode="layer"
     id="layer1"
     transform="translate(-47.4371,-90.806146)">
    <path
       sodipodi:type="inkscape:box3dside"
       id="path1176-5-0-7-1-3"
       style="fill:#bff4ec;fill-opacity:1;fill-rule:evenodd;stroke:none;stroke-width:1.39271;stroke-linecap:round;stroke-linejoin:round;stop-color:#000000"
       inkscape:box3dsidetype="5"
       points="-10452.201,4360.7528 -10310.881,4291.8261 -10451.22,4223.3782 -10592.54,4292.3049 "
       d="m -10592.54,4292.3049 140.339,68.4479 141.32,-68.9267 -140.339,-68.4479 z"
       transform="matrix(0.16503274,0,0,0.16503274,1795.553,-570.8413)" />
    <path
       sodipodi:type="inkscape:box3dside"
       id="path1180-6-3-5-7-6"
       style="fill:#a8f0e6;fill-opacity:1;fill-rule:evenodd;stroke:none;stroke-width:1.39271;stroke-linecap:round;stroke-linejoin:round;stop-color:#000000"
       inkscape:box3dsidetype="14"
       points="-10452.201,4470.7185 -10310.881,4401.7918 -10310.881,4291.8261 -10452.201,4360.7528 "
       d="m -10452.201,4360.7528 v 109.9657 l 141.32,-68.9267 v -109.9657 z"
       transform="matrix(0.16503274,0,0,0.16503274,1795.553,-570.8413)" />
    <path
       sodipodi:type="inkscape:box3dside"
       id="path1178-2-7-7-2-7"
       style="fill:#7ecfc7;fill-opacity:1;fill-rule:evenodd;stroke:none;stroke-width:1.39271;stroke-linecap:round;stroke-linejoin:round;stop-color:#000000"
       inkscape:box3dsidetype="3"
       points="-10452.201,4360.7528 -10452.201,4470.7185 -10592.54,4402.2706 -10592.54,4292.3049 "
       d="m -10592.54,4292.3049 140.339,68.4479 v 109.9657 l -140.339,-68.4479 z"
       transform="matrix(0.16503274,0,0,0.16503274,1795.553,-570.8413)" />
    <path
       sodipodi:type="inkscape:box3dside"
       id="path1176-5-0-4-5"
       style="fill:#bff4ec;fill-opacity:1;fill-rule:evenodd;stroke:none;stroke-width:1.39271;stroke-linecap:round;stroke-linejoin:round;stop-color:#000000"
       inkscape:box3dsidetype="5"
       points="-10087.33,4291.2254 -10003.944,4250.5554 -10079.574,4213.6684 -10162.96,4254.3384 "
       d="m -10162.96,4254.3384 75.63,36.887 83.386,-40.67 -75.63,-36.887 z"
       transform="matrix(0.16503274,0,0,0.16503274,1795.553,-570.8413)" />
    <path
       sodipodi:type="inkscape:box3dside"
       id="path1180-6-3-1-3"
       style="fill:#a8f0e6;fill-opacity:1;fill-rule:evenodd;stroke:none;stroke-width:1.39271;stroke-linecap:round;stroke-linejoin:round;stop-color:#000000"
       inkscape:box3dsidetype="14"
       points="-10087.33,4375.9258 -10003.944,4335.2559 -10003.944,4250.5554 -10087.33,4291.2254 "
       d="m -10087.33,4291.2254 v 84.7004 l 83.386,-40.6699 v -84.7005 z"
       transform="matrix(0.16503274,0,0,0.16503274,1795.553,-570.8413)" />
    <path
       sodipodi:type="inkscape:box3dside"
       id="path1178-2-7-1-5"
       style="fill:#7ecfc7;fill-opacity:1;fill-rule:evenodd;stroke:none;stroke-width:1.39271;stroke-linecap:round;stroke-linejoin:round;stop-color:#000000"
       inkscape:box3dsidetype="3"
       points="-10087.33,4291.2254 -10087.33,4375.9258 -10162.96,4339.0389 -10162.96,4254.3384 "
       d="m -10162.96,4254.3384 75.63,36.887 v 84.7004 l -75.63,-36.8869 z"
       transform="matrix(0.16503274,0,0,0.16503274,1795.553,-570.8413)" />
    <path
       sodipodi:type="inkscape:box3dside"
       id="path1176-5-0-7-3-9-6"
       style="fill:#bff4ec;fill-opacity:1;fill-rule:evenodd;stroke:none;stroke-width:1.39271;stroke-linecap:round;stroke-linejoin:round;stop-color:#000000"
       inkscape:box3dsidetype="5"
       points="-10280.835,4188.0341 -10115.56,4107.4242 -10316.972,4009.189 -10482.247,4089.7989 "
       d="m -10482.247,4089.7989 201.412,98.2352 165.275,-80.6099 -201.412,-98.2352 z"
       transform="matrix(0.16503274,0,0,0.16503274,1795.553,-570.8413)" />
    <path
       sodipodi:type="inkscape:box3dside"
       id="path1180-6-3-5-3-0-2"
       style="fill:#a8f0e6;fill-opacity:1;fill-rule:evenodd;stroke:none;stroke-width:1.39271;stroke-linecap:round;stroke-linejoin:round;stop-color:#000000"
       inkscape:box3dsidetype="14"
       points="-10280.835,4375.407 -10115.56,4294.7971 -10115.56,4107.4242 -10280.835,4188.0341 "
       d="m -10280.835,4188.0341 v 187.3729 l 165.275,-80.6099 v -187.3729 z"
       transform="matrix(0.16503274,0,0,0.16503274,1795.553,-570.8413)" />
    <path
       sodipodi:type="inkscape:box3dside"
       id="path1178-2-7-7-3-4-9"
       style="fill:#7ecfc7;fill-opacity:1;fill-rule:evenodd;stroke:none;stroke-width:1.39271;stroke-linecap:round;stroke-linejoin:round;stop-color:#000000"
       inkscape:box3dsidetype="3"
       points="-10280.835,4188.0341 -10280.835,4375.407 -10482.247,4277.1718 -10482.247,4089.7989 "
       d="m -10482.247,4089.7989 201.412,98.2352 v 187.3729 l -201.412,-98.2352 z"
       transform="matrix(0.16503274,0,0,0.16503274,1795.553,-570.8413)" />
  </g>
</svg>
