<?xml version="1.0" encoding="UTF-8" standalone="no"?>
<svg
   xmlns:dc="http://purl.org/dc/elements/1.1/"
   xmlns:cc="http://creativecommons.org/ns#"
   xmlns:rdf="http://www.w3.org/1999/02/22-rdf-syntax-ns#"
   xmlns:svg="http://www.w3.org/2000/svg"
   xmlns="http://www.w3.org/2000/svg"
   xmlns:sodipodi="http://sodipodi.sourceforge.net/DTD/sodipodi-0.dtd"
   xmlns:inkscape="http://www.inkscape.org/namespaces/inkscape"
   width="147.15234mm"
   height="114.49532mm"
   viewBox="0 0 147.15234 114.49532"
   version="1.1"
   id="svg2935"
   inkscape:version="1.0.2 (e86c870879, 2021-01-15)"
   sodipodi:docname="clouds1.svg">
  <defs
     id="defs2929">
    <inkscape:perspective
       sodipodi:type="inkscape:persp3d"
       inkscape:vp_x="-8.3118007 : 4.0539359 : 0"
       inkscape:vp_y="-1.1171105e-14 : 60.812659 : 0"
       inkscape:vp_z="8.3118007 : 4.0539362 : 0"
       inkscape:persp3d-origin="126.17891 : 80.876095 : 1"
       id="perspective1170-3-4-4-1-7" />
    <inkscape:perspective
       sodipodi:type="inkscape:persp3d"
       inkscape:vp_x="-8.3118007 : 4.0539359 : 0"
       inkscape:vp_y="-1.1171105e-14 : 60.812659 : 0"
       inkscape:vp_z="8.3118007 : 4.0539362 : 0"
       inkscape:persp3d-origin="17.71596 : 27.339507 : 1"
       id="perspective1170-3-4-9" />
    <inkscape:perspective
       sodipodi:type="inkscape:persp3d"
       inkscape:vp_x="-8.3118007 : 4.0539359 : 0"
       inkscape:vp_y="-1.1171105e-14 : 60.812659 : 0"
       inkscape:vp_z="8.3118007 : 4.0539362 : 0"
       inkscape:persp3d-origin="45.58807 : 40.933637 : 1"
       id="perspective1170-3-4-08-8" />
    <inkscape:perspective
       sodipodi:type="inkscape:persp3d"
       inkscape:vp_x="-8.3118007 : 4.0539359 : 0"
       inkscape:vp_y="-1.1171105e-14 : 60.812659 : 0"
       inkscape:vp_z="8.3118007 : 4.0539362 : 0"
       inkscape:persp3d-origin="89.178914 : 63.871536 : 1"
       id="perspective1170-3-4-4-6" />
  </defs>
  <sodipodi:namedview
     id="base"
     pagecolor="#ffffff"
     bordercolor="#666666"
     borderopacity="1.0"
     inkscape:pageopacity="0.0"
     inkscape:pageshadow="2"
     inkscape:zoom="0.7"
     inkscape:cx="73.898887"
     inkscape:cy="70.575979"
     inkscape:document-units="mm"
     inkscape:current-layer="layer1"
     inkscape:document-rotation="0"
     showgrid="false"
     inkscape:window-width="1530"
     inkscape:window-height="1016"
     inkscape:window-x="100"
     inkscape:window-y="27"
     inkscape:window-maximized="0"
     inkscape:snap-bbox="true"
     inkscape:snap-page="true"
     inkscape:snap-nodes="false"
     inkscape:snap-others="false"
     inkscape:bbox-paths="true"
     inkscape:bbox-nodes="true"
     inkscape:snap-bbox-edge-midpoints="true" />
  <metadata
     id="metadata2932">
    <rdf:RDF>
      <cc:Work
         rdf:about="">
        <dc:format>image/svg+xml</dc:format>
        <dc:type
           rdf:resource="http://purl.org/dc/dcmitype/StillImage" />
        <dc:title />
      </cc:Work>
    </rdf:RDF>
  </metadata>
  <g
     inkscape:label="Layer 1"
     inkscape:groupmode="layer"
     id="layer1"
     transform="translate(-53.8018,-109.06186)">
    <path
       sodipodi:type="inkscape:box3dside"
       id="path1176-5-0-7-3-4-3"
       style="fill:#bff4ec;fill-opacity:1;fill-rule:evenodd;stroke:none;stroke-width:1.39271;stroke-linecap:round;stroke-linejoin:round;stop-color:#000000"
       inkscape:box3dsidetype="5"
       points="-4494.4393,5372.9804 -4329.1645,5292.3705 -4530.5766,5194.1353 -4695.8514,5274.7452 "
       d="m -4695.8514,5274.7452 201.4121,98.2352 165.2748,-80.6099 -201.4121,-98.2352 z"
       transform="matrix(0.16503274,0,0,0.16503274,915.40803,-748.14052)" />
    <path
       sodipodi:type="inkscape:box3dside"
       id="path1180-6-3-5-3-8-6"
       style="fill:#a8f0e6;fill-opacity:1;fill-rule:evenodd;stroke:none;stroke-width:1.39271;stroke-linecap:round;stroke-linejoin:round;stop-color:#000000"
       inkscape:box3dsidetype="14"
       points="-4494.4393,5560.3534 -4329.1645,5479.7434 -4329.1645,5292.3705 -4494.4393,5372.9804 "
       d="m -4494.4393,5372.9804 v 187.373 l 165.2748,-80.61 v -187.3729 z"
       transform="matrix(0.16503274,0,0,0.16503274,915.40803,-748.14052)" />
    <path
       sodipodi:type="inkscape:box3dside"
       id="path1178-2-7-7-3-1-7"
       style="fill:#7ecfc7;fill-opacity:1;fill-rule:evenodd;stroke:none;stroke-width:1.39271;stroke-linecap:round;stroke-linejoin:round;stop-color:#000000"
       inkscape:box3dsidetype="3"
       points="-4494.4393,5372.9804 -4494.4393,5560.3534 -4695.8514,5462.1181 -4695.8514,5274.7452 "
       d="m -4695.8514,5274.7452 201.4121,98.2352 v 187.373 l -201.4121,-98.2353 z"
       transform="matrix(0.16503274,0,0,0.16503274,915.40803,-748.14052)" />
    <path
       sodipodi:type="inkscape:box3dside"
       id="path1176-5-0-9-5"
       style="fill:#bff4ec;fill-opacity:1;fill-rule:evenodd;stroke:none;stroke-width:1.39271;stroke-linecap:round;stroke-linejoin:round;stop-color:#000000"
       inkscape:box3dsidetype="5"
       points="-5145.1904,5803.2082 -5061.8046,5762.5383 -5137.4341,5725.6513 -5220.82,5766.3213 "
       d="m -5220.82,5766.3213 75.6296,36.8869 83.3858,-40.6699 -75.6295,-36.887 z"
       transform="matrix(0.16503274,0,0,0.16503274,915.40803,-748.14052)" />
    <path
       sodipodi:type="inkscape:box3dside"
       id="path1180-6-3-6-3"
       style="fill:#a8f0e6;fill-opacity:1;fill-rule:evenodd;stroke:none;stroke-width:1.39271;stroke-linecap:round;stroke-linejoin:round;stop-color:#000000"
       inkscape:box3dsidetype="14"
       points="-5145.1904,5887.9087 -5061.8046,5847.2387 -5061.8046,5762.5383 -5145.1904,5803.2082 "
       d="m -5145.1904,5803.2082 v 84.7005 l 83.3858,-40.67 v -84.7004 z"
       transform="matrix(0.16503274,0,0,0.16503274,915.40803,-748.14052)" />
    <path
       sodipodi:type="inkscape:box3dside"
       id="path1178-2-7-0-5"
       style="fill:#7ecfc7;fill-opacity:1;fill-rule:evenodd;stroke:none;stroke-width:1.39271;stroke-linecap:round;stroke-linejoin:round;stop-color:#000000"
       inkscape:box3dsidetype="3"
       points="-5145.1904,5803.2082 -5145.1904,5887.9087 -5220.82,5851.0217 -5220.82,5766.3213 "
       d="m -5220.82,5766.3213 75.6296,36.8869 v 84.7005 l -75.6296,-36.887 z"
       transform="matrix(0.16503274,0,0,0.16503274,915.40803,-748.14052)" />
    <path
       sodipodi:type="inkscape:box3dside"
       id="path1176-5-0-1-0-6"
       style="fill:#bff4ec;fill-opacity:1;fill-rule:evenodd;stroke:none;stroke-width:1.39271;stroke-linecap:round;stroke-linejoin:round;stop-color:#000000"
       inkscape:box3dsidetype="5"
       points="-4976.302,5720.8359 -4821.5557,5645.3611 -4897.1852,5608.4741 -5051.9316,5683.9489 "
       d="m -5051.9316,5683.9489 75.6296,36.887 154.7463,-75.4748 -75.6295,-36.887 z"
       transform="matrix(0.16503274,0,0,0.16503274,915.40803,-748.14052)" />
    <path
       sodipodi:type="inkscape:box3dside"
       id="path1180-6-3-8-8-2"
       style="fill:#a8f0e6;fill-opacity:1;fill-rule:evenodd;stroke:none;stroke-width:1.39271;stroke-linecap:round;stroke-linejoin:round;stop-color:#000000"
       inkscape:box3dsidetype="14"
       points="-4976.302,5805.5364 -4821.5557,5730.0615 -4821.5557,5645.3611 -4976.302,5720.8359 "
       d="m -4976.302,5720.8359 v 84.7005 l 154.7463,-75.4749 v -84.7004 z"
       transform="matrix(0.16503274,0,0,0.16503274,915.40803,-748.14052)" />
    <path
       sodipodi:type="inkscape:box3dside"
       id="path1178-2-7-3-9-9"
       style="fill:#7ecfc7;fill-opacity:1;fill-rule:evenodd;stroke:none;stroke-width:1.39271;stroke-linecap:round;stroke-linejoin:round;stop-color:#000000"
       inkscape:box3dsidetype="3"
       points="-4976.302,5720.8359 -4976.302,5805.5364 -5051.9316,5768.6494 -5051.9316,5683.9489 "
       d="m -5051.9316,5683.9489 75.6296,36.887 v 84.7005 l -75.6296,-36.887 z"
       transform="matrix(0.16503274,0,0,0.16503274,915.40803,-748.14052)" />
    <path
       sodipodi:type="inkscape:box3dside"
       id="path1176-5-0-7-9-1"
       style="fill:#bff4ec;fill-opacity:1;fill-rule:evenodd;stroke:none;stroke-width:1.39271;stroke-linecap:round;stroke-linejoin:round;stop-color:#000000"
       inkscape:box3dsidetype="5"
       points="-4724.8748,5550.3829 -4583.5542,5481.4563 -4723.8931,5413.0084 -4865.2137,5481.935 "
       d="m -4865.2137,5481.935 140.3389,68.4479 141.3206,-68.9266 -140.3389,-68.4479 z"
       transform="matrix(0.16503274,0,0,0.16503274,915.40803,-748.14052)" />
    <path
       sodipodi:type="inkscape:box3dside"
       id="path1180-6-3-5-6-2"
       style="fill:#a8f0e6;fill-opacity:1;fill-rule:evenodd;stroke:none;stroke-width:1.39271;stroke-linecap:round;stroke-linejoin:round;stop-color:#000000"
       inkscape:box3dsidetype="14"
       points="-4724.8748,5660.3486 -4583.5542,5591.422 -4583.5542,5481.4563 -4724.8748,5550.3829 "
       d="m -4724.8748,5550.3829 v 109.9657 l 141.3206,-68.9266 v -109.9657 z"
       transform="matrix(0.16503274,0,0,0.16503274,915.40803,-748.14052)" />
    <path
       sodipodi:type="inkscape:box3dside"
       id="path1178-2-7-7-7-7"
       style="fill:#7ecfc7;fill-opacity:1;fill-rule:evenodd;stroke:none;stroke-width:1.39271;stroke-linecap:round;stroke-linejoin:round;stop-color:#000000"
       inkscape:box3dsidetype="3"
       points="-4724.8748,5550.3829 -4724.8748,5660.3486 -4865.2137,5591.9007 -4865.2137,5481.935 "
       d="m -4865.2137,5481.935 140.3389,68.4479 v 109.9657 l -140.3389,-68.4479 z"
       transform="matrix(0.16503274,0,0,0.16503274,915.40803,-748.14052)" />
  </g>
</svg>
