<?xml version="1.0" encoding="UTF-8" standalone="no"?>
<svg
   xmlns:dc="http://purl.org/dc/elements/1.1/"
   xmlns:cc="http://creativecommons.org/ns#"
   xmlns:rdf="http://www.w3.org/1999/02/22-rdf-syntax-ns#"
   xmlns:svg="http://www.w3.org/2000/svg"
   xmlns="http://www.w3.org/2000/svg"
   xmlns:sodipodi="http://sodipodi.sourceforge.net/DTD/sodipodi-0.dtd"
   xmlns:inkscape="http://www.inkscape.org/namespaces/inkscape"
   width="110.38068mm"
   height="77.46006mm"
   viewBox="0 0 110.38068 77.46006"
   version="1.1"
   id="svg3666"
   inkscape:version="1.0.2 (e86c870879, 2021-01-15)"
   sodipodi:docname="clouds2.svg">
  <defs
     id="defs3660">
    <inkscape:perspective
       sodipodi:type="inkscape:persp3d"
       inkscape:vp_x="-8.3118012 : 4.053936 : 0"
       inkscape:vp_y="-1.1171106e-14 : 60.812662 : 0"
       inkscape:vp_z="8.3118012 : 4.0539363 : 0"
       inkscape:persp3d-origin="74.854988 : 78.021785 : 1"
       id="perspective1170-3-4-9-1-0" />
    <inkscape:perspective
       sodipodi:type="inkscape:persp3d"
       inkscape:vp_x="-8.3118012 : 4.053936 : 0"
       inkscape:vp_y="-1.1171106e-14 : 60.812662 : 0"
       inkscape:vp_z="8.3118012 : 4.0539363 : 0"
       inkscape:persp3d-origin="17.71596 : 65.607484 : 1"
       id="perspective1170-3-4-9-1" />
    <inkscape:perspective
       sodipodi:type="inkscape:persp3d"
       inkscape:vp_x="-8.3118012 : 4.053936 : 0"
       inkscape:vp_y="-1.1171106e-14 : 60.812662 : 0"
       inkscape:vp_z="8.3118012 : 4.0539363 : 0"
       inkscape:persp3d-origin="50.494314 : 44.896214 : 1"
       id="perspective1170-3-4-4-6-5" />
    <inkscape:perspective
       sodipodi:type="inkscape:persp3d"
       inkscape:vp_x="-8.3118012 : 4.053936 : 0"
       inkscape:vp_y="-1.1171106e-14 : 60.812662 : 0"
       inkscape:vp_z="8.3118012 : 4.0539363 : 0"
       inkscape:persp3d-origin="89.407259 : 26.818724 : 1"
       id="perspective1170-3-4-4-1-7-4" />
  </defs>
  <sodipodi:namedview
     id="base"
     pagecolor="#ffffff"
     bordercolor="#666666"
     borderopacity="1.0"
     inkscape:pageopacity="0.0"
     inkscape:pageshadow="2"
     inkscape:zoom="0.7"
     inkscape:cx="166.27861"
     inkscape:cy="14.074775"
     inkscape:document-units="mm"
     inkscape:current-layer="layer1"
     inkscape:document-rotation="0"
     showgrid="false"
     inkscape:window-width="1530"
     inkscape:window-height="1016"
     inkscape:window-x="100"
     inkscape:window-y="27"
     inkscape:window-maximized="0"
     inkscape:snap-bbox="true"
     inkscape:bbox-paths="true"
     inkscape:bbox-nodes="true"
     inkscape:snap-bbox-edge-midpoints="true"
     inkscape:snap-nodes="false"
     inkscape:snap-others="false"
     inkscape:snap-page="true" />
  <metadata
     id="metadata3663">
    <rdf:RDF>
      <cc:Work
         rdf:about="">
        <dc:format>image/svg+xml</dc:format>
        <dc:type
           rdf:resource="http://purl.org/dc/dcmitype/StillImage" />
        <dc:title />
      </cc:Work>
    </rdf:RDF>
  </metadata>
  <g
     inkscape:label="Layer 1"
     inkscape:groupmode="layer"
     id="layer1"
     transform="translate(-52.154903,-139.29676)">
    <path
       sodipodi:type="inkscape:box3dside"
       id="path1176-5-0-9-2-5-3"
       style="fill:#bff4ec;fill-opacity:1;fill-rule:evenodd;stroke:none;stroke-width:1.39271;stroke-linecap:round;stroke-linejoin:round;stop-color:#000000"
       inkscape:box3dsidetype="5"
       points="-8298.0784,5646.7746 -8214.6926,5606.1046 -8290.3221,5569.2177 -8373.7079,5609.8876 "
       d="m -8373.7079,5609.8876 75.6295,36.887 83.3858,-40.67 -75.6295,-36.8869 z"
       transform="matrix(0.16503274,0,0,0.16503274,1491.2299,-779.8065)" />
    <path
       sodipodi:type="inkscape:box3dside"
       id="path1180-6-3-6-2-0-6"
       style="fill:#a8f0e6;fill-opacity:1;fill-rule:evenodd;stroke:none;stroke-width:1.39271;stroke-linecap:round;stroke-linejoin:round;stop-color:#000000"
       inkscape:box3dsidetype="14"
       points="-8298.0784,5731.4751 -8214.6926,5690.8051 -8214.6926,5606.1046 -8298.0784,5646.7746 "
       d="m -8298.0784,5646.7746 v 84.7005 l 83.3858,-40.67 v -84.7005 z"
       transform="matrix(0.16503274,0,0,0.16503274,1491.2299,-779.8065)" />
    <path
       sodipodi:type="inkscape:box3dside"
       id="path1178-2-7-0-1-6-7"
       style="fill:#7ecfc7;fill-opacity:1;fill-rule:evenodd;stroke:none;stroke-width:1.39271;stroke-linecap:round;stroke-linejoin:round;stop-color:#000000"
       inkscape:box3dsidetype="3"
       points="-8298.0784,5646.7746 -8298.0784,5731.4751 -8373.7079,5694.5881 -8373.7079,5609.8876 "
       d="m -8373.7079,5609.8876 75.6295,36.887 v 84.7005 l -75.6295,-36.887 z"
       transform="matrix(0.16503274,0,0,0.16503274,1491.2299,-779.8065)" />
    <path
       sodipodi:type="inkscape:box3dside"
       id="path1176-5-0-9-2-53"
       style="fill:#bff4ec;fill-opacity:1;fill-rule:evenodd;stroke:none;stroke-width:1.39271;stroke-linecap:round;stroke-linejoin:round;stop-color:#000000"
       inkscape:box3dsidetype="5"
       points="-8644.3068,5721.9979 -8560.921,5681.3279 -8636.5505,5644.4409 -8719.9364,5685.1109 "
       d="m -8719.9364,5685.1109 75.6296,36.887 83.3858,-40.67 -75.6295,-36.887 z"
       transform="matrix(0.16503274,0,0,0.16503274,1491.2299,-779.8065)" />
    <path
       sodipodi:type="inkscape:box3dside"
       id="path1180-6-3-6-2-5"
       style="fill:#a8f0e6;fill-opacity:1;fill-rule:evenodd;stroke:none;stroke-width:1.39271;stroke-linecap:round;stroke-linejoin:round;stop-color:#000000"
       inkscape:box3dsidetype="14"
       points="-8644.3068,5806.6983 -8560.921,5766.0283 -8560.921,5681.3279 -8644.3068,5721.9979 "
       d="m -8644.3068,5721.9979 v 84.7004 l 83.3858,-40.67 v -84.7004 z"
       transform="matrix(0.16503274,0,0,0.16503274,1491.2299,-779.8065)" />
    <path
       sodipodi:type="inkscape:box3dside"
       id="path1178-2-7-0-1-62"
       style="fill:#7ecfc7;fill-opacity:1;fill-rule:evenodd;stroke:none;stroke-width:1.39271;stroke-linecap:round;stroke-linejoin:round;stop-color:#000000"
       inkscape:box3dsidetype="3"
       points="-8644.3068,5721.9979 -8644.3068,5806.6983 -8719.9364,5769.8113 -8719.9364,5685.1109 "
       d="m -8719.9364,5685.1109 75.6296,36.887 v 84.7004 l -75.6296,-36.887 z"
       transform="matrix(0.16503274,0,0,0.16503274,1491.2299,-779.8065)" />
    <path
       sodipodi:type="inkscape:box3dside"
       id="path1176-5-0-7-9-4-9"
       style="fill:#bff4ec;fill-opacity:1;fill-rule:evenodd;stroke:none;stroke-width:1.39271;stroke-linecap:round;stroke-linejoin:round;stop-color:#000000"
       inkscape:box3dsidetype="5"
       points="-8458.3968,5816.0328 -8317.0762,5747.1061 -8457.4152,5678.6583 -8598.7358,5747.5849 "
       d="m -8598.7358,5747.5849 140.339,68.4479 141.3206,-68.9267 -140.339,-68.4478 z"
       transform="matrix(0.16503274,0,0,0.16503274,1491.2299,-779.8065)" />
    <path
       sodipodi:type="inkscape:box3dside"
       id="path1180-6-3-5-6-6-1"
       style="fill:#a8f0e6;fill-opacity:1;fill-rule:evenodd;stroke:none;stroke-width:1.39271;stroke-linecap:round;stroke-linejoin:round;stop-color:#000000"
       inkscape:box3dsidetype="14"
       points="-8458.3968,5925.9985 -8317.0762,5857.0719 -8317.0762,5747.1061 -8458.3968,5816.0328 "
       d="m -8458.3968,5816.0328 v 109.9657 l 141.3206,-68.9266 v -109.9658 z"
       transform="matrix(0.16503274,0,0,0.16503274,1491.2299,-779.8065)" />
    <path
       sodipodi:type="inkscape:box3dside"
       id="path1178-2-7-7-7-6-2"
       style="fill:#7ecfc7;fill-opacity:1;fill-rule:evenodd;stroke:none;stroke-width:1.39271;stroke-linecap:round;stroke-linejoin:round;stop-color:#000000"
       inkscape:box3dsidetype="3"
       points="-8458.3968,5816.0328 -8458.3968,5925.9985 -8598.7358,5857.5506 -8598.7358,5747.5849 "
       d="m -8598.7358,5747.5849 140.339,68.4479 v 109.9657 l -140.339,-68.4479 z"
       transform="matrix(0.16503274,0,0,0.16503274,1491.2299,-779.8065)" />
    <path
       sodipodi:type="inkscape:box3dside"
       id="path1176-5-0-7-3-4-7-7"
       style="fill:#bff4ec;fill-opacity:1;fill-rule:evenodd;stroke:none;stroke-width:1.39271;stroke-linecap:round;stroke-linejoin:round;stop-color:#000000"
       inkscape:box3dsidetype="5"
       points="-8216.3701,5851.2066 -8051.0953,5770.5967 -8252.5074,5672.3615 -8417.7822,5752.9714 "
       d="m -8417.7822,5752.9714 201.4121,98.2352 165.2748,-80.6099 -201.4121,-98.2352 z"
       transform="matrix(0.16503274,0,0,0.16503274,1491.2299,-779.8065)" />
    <path
       sodipodi:type="inkscape:box3dside"
       id="path1180-6-3-5-3-8-3-0"
       style="fill:#a8f0e6;fill-opacity:1;fill-rule:evenodd;stroke:none;stroke-width:1.39271;stroke-linecap:round;stroke-linejoin:round;stop-color:#000000"
       inkscape:box3dsidetype="14"
       points="-8216.3701,6038.5795 -8051.0953,5957.9696 -8051.0953,5770.5967 -8216.3701,5851.2066 "
       d="m -8216.3701,5851.2066 v 187.3729 l 165.2748,-80.6099 v -187.3729 z"
       transform="matrix(0.16503274,0,0,0.16503274,1491.2299,-779.8065)" />
    <path
       sodipodi:type="inkscape:box3dside"
       id="path1178-2-7-7-3-1-6-9"
       style="fill:#7ecfc7;fill-opacity:1;fill-rule:evenodd;stroke:none;stroke-width:1.39271;stroke-linecap:round;stroke-linejoin:round;stop-color:#000000"
       inkscape:box3dsidetype="3"
       points="-8216.3701,5851.2066 -8216.3701,6038.5795 -8417.7822,5940.3443 -8417.7822,5752.9714 "
       d="m -8417.7822,5752.9714 201.4121,98.2352 v 187.3729 l -201.4121,-98.2352 z"
       transform="matrix(0.16503274,0,0,0.16503274,1491.2299,-779.8065)" />
  </g>
</svg>
