<?xml version="1.0" encoding="UTF-8" standalone="no"?>
<svg
   width="32pc"
   height="32pc"
   viewBox="0 0 135.46667 135.46667"
   version="1.1"
   id="svg1420"
   inkscape:version="1.2.2 (b0a8486541, 2022-12-01)"
   sodipodi:docname="favicon_test.svg"
   xml:space="preserve"
   xmlns:inkscape="http://www.inkscape.org/namespaces/inkscape"
   xmlns:sodipodi="http://sodipodi.sourceforge.net/DTD/sodipodi-0.dtd"
   xmlns="http://www.w3.org/2000/svg"
   xmlns:svg="http://www.w3.org/2000/svg"
   xmlns:rdf="http://www.w3.org/1999/02/22-rdf-syntax-ns#"
   xmlns:cc="http://creativecommons.org/ns#"
   xmlns:dc="http://purl.org/dc/elements/1.1/"><defs
     id="defs1414"><inkscape:perspective
       sodipodi:type="inkscape:persp3d"
       inkscape:vp_x="-4.620851 : -2.2537397 : 0"
       inkscape:vp_y="12.244497 : 59.925292 : 1"
       inkscape:vp_z="4.620851 : -2.2537397 : 0"
       inkscape:persp3d-origin="14.618817 : 93.874512 : 1"
       id="perspective1170-9-1-2" /><inkscape:perspective
       sodipodi:type="inkscape:persp3d"
       inkscape:vp_x="-4.620851 : -2.2537397 : 0"
       inkscape:vp_y="12.309717 : 67.671602 : 1"
       inkscape:vp_z="4.620851 : -2.2537397 : 0"
       inkscape:persp3d-origin="14.684067 : 101.62082 : 1"
       id="perspective1170-9-1" /></defs><sodipodi:namedview
     id="base"
     pagecolor="#ffffff"
     bordercolor="#666666"
     borderopacity="1.0"
     inkscape:pageopacity="0.0"
     inkscape:pageshadow="2"
     inkscape:zoom="0.24748738"
     inkscape:cx="434.36558"
     inkscape:cy="620.23365"
     inkscape:document-units="mm"
     inkscape:current-layer="layer1"
     inkscape:document-rotation="0"
     showgrid="true"
     inkscape:window-width="1530"
     inkscape:window-height="1016"
     inkscape:window-x="56"
     inkscape:window-y="32"
     inkscape:window-maximized="0"
     inkscape:snap-page="true"
     inkscape:snap-bbox="true"
     inkscape:bbox-paths="true"
     inkscape:bbox-nodes="true"
     inkscape:snap-nodes="false"
     inkscape:snap-others="false"
     inkscape:snap-bbox-edge-midpoints="true"
     inkscape:snap-bbox-midpoints="false"
     inkscape:snap-grids="false"
     inkscape:snap-to-guides="false"
     lock-margins="false"
     inkscape:showpageshadow="2"
     inkscape:pagecheckerboard="0"
     inkscape:deskcolor="#d1d1d1"><inkscape:grid
       type="xygrid"
       id="grid517"
       originx="0"
       originy="0" /></sodipodi:namedview><metadata
     id="metadata1417"><rdf:RDF><cc:Work
         rdf:about=""><dc:format>image/svg+xml</dc:format><dc:type
           rdf:resource="http://purl.org/dc/dcmitype/StillImage" /></cc:Work></rdf:RDF></metadata><g
     inkscape:label="Layer 1"
     inkscape:groupmode="layer"
     id="layer1"
     transform="translate(0,-4.233336)"><g
       id="g859"
       transform="matrix(2.9404699,2.9404699,-2.9404699,2.9404699,-54.267967,98.474912)"><path
         d="m 29.072955,44.464857 8.898163,-4.339924 1.220293,-5.38454 -10.088735,4.920604 z"
         style="fill:#f7941d;fill-opacity:1;fill-rule:evenodd;stroke:#f7941d;stroke-width:2.88569;stroke-linecap:round;stroke-linejoin:round;stroke-miterlimit:4;stroke-dasharray:none;stroke-opacity:1"
         id="path3218" /><path
         d="m 20.237151,40.155346 -1.152507,-5.38047 10.018032,4.886121 -0.02972,4.80386 z"
         style="fill:#ce7923;fill-opacity:1;fill-rule:evenodd;stroke:#ce7923;stroke-width:2.88569;stroke-linecap:round;stroke-linejoin:round;stroke-miterlimit:4;stroke-dasharray:none;stroke-opacity:1"
         id="path3220" /><path
         style="fill:#ce7923;fill-opacity:1;stroke:none;stroke-width:0.0338082px;stroke-linecap:butt;stroke-linejoin:miter;stroke-opacity:1"
         d="m 29.154213,38.199679 -0.0515,1.46132 10.088729,-4.92061 0.37134,-1.61729 z"
         id="path8199" /><path
         style="fill:#f7941d;fill-opacity:1;stroke:none;stroke-width:0.0338082px;stroke-linecap:butt;stroke-linejoin:miter;stroke-opacity:1"
         d="m 29.102693,39.660999 0.0515,-1.46132 -10.362201,-5.05399 0.29263,1.6292 10.018051,4.88611"
         id="path8201" /><path
         d="m 29.154229,38.199689 10.408552,-5.07659 1.943012,-7.208467 -12.308096,6.00306 z"
         style="fill:#f7941d;fill-opacity:1;fill-rule:evenodd;stroke:#f7941d;stroke-width:2.88569;stroke-linecap:round;stroke-linejoin:round;stroke-miterlimit:4;stroke-dasharray:none;stroke-opacity:1"
         id="path3238" /><path
         d="m 18.792022,33.145703 -1.847618,-7.204342 12.253293,5.976331 -0.04347,6.281997 z"
         style="fill:#ce7923;fill-opacity:1;fill-rule:evenodd;stroke:#ce7923;stroke-width:2.88569;stroke-linecap:round;stroke-linejoin:round;stroke-miterlimit:4;stroke-dasharray:none;stroke-opacity:1"
         id="path3240" /><path
         d="m 16.944404,25.941361 12.308096,-6.00306 12.253293,5.976331 -12.308096,6.00306 z"
         style="fill:#f7941d;fill-opacity:1;fill-rule:evenodd;stroke:#fab259;stroke-width:2.88569;stroke-linecap:round;stroke-linejoin:round;stroke-miterlimit:4;stroke-dasharray:none;stroke-opacity:1"
         id="path3242" /><path
         style="fill:#48ac3c;fill-opacity:1;stroke:#48ac3c;stroke-width:3.39743;stroke-linecap:round;stroke-linejoin:round;stroke-miterlimit:4;stroke-dasharray:none;stroke-opacity:1"
         d="M 29.299808,6.52555 V 24.954564"
         id="path8697" /><path
         style="fill:none;stroke:#48ac3c;stroke-width:3.39743;stroke-linecap:round;stroke-linejoin:round;stroke-miterlimit:4;stroke-dasharray:none;stroke-opacity:1"
         d="m 38.774169,15.833756 c -4.076024,0.76669 -8.169554,1.490023 -9.474361,9.120808"
         id="path8699"
         sodipodi:nodetypes="cc" /><path
         style="fill:none;stroke:#48ac3c;stroke-width:3.39743;stroke-linecap:round;stroke-linejoin:round;stroke-miterlimit:4;stroke-dasharray:none;stroke-opacity:1"
         d="m 19.044566,15.86221 c 3.792785,0.109985 7.627996,-0.111035 10.255242,9.092354"
         id="path8701"
         sodipodi:nodetypes="cc" /></g><g
       id="path5238-5"
       style="stroke:none;stroke-opacity:1"
       transform="translate(-219.60482,-150.81224)"><path
         style="color:#000000;fill:#f7941d;stroke:none;stroke-width:12.3998;stroke-linecap:round;stroke-linejoin:round;stroke-opacity:1;-inkscape-stroke:none"
         d="M 102.27967,97.820061 41.350775,36.891174 6.1994941,132.97135 Z"
         id="path7082-3" /><path
         style="color:#000000;fill:#f7941d;stroke:none;stroke-linecap:round;stroke-linejoin:round;stroke-opacity:1;-inkscape-stroke:none"
         d="m 40.013672,30.837891 c -2.067226,0.456317 -3.758781,1.935783 -4.486328,3.923828 L 0.37695313,130.8418 c -1.80989563,4.95428 2.99928757,9.76228 7.95312497,7.95117 L 104.41016,103.64258 c 4.25485,-1.55701 5.45744,-7.003074 2.2539,-10.207033 L 45.734375,32.507812 C 44.23751,31.011208 42.080606,30.38159 40.013672,30.837891 Z"
         id="path7079-5"
         sodipodi:nodetypes="cccccccc" /></g><g
       id="g7815"
       transform="translate(-16.114072,-4.1997695)"><path
         id="path7079"
         style="color:#000000;fill:#ce7923;fill-opacity:1;stroke:none;stroke-linecap:round;stroke-linejoin:round;stroke-opacity:1;-inkscape-stroke:none"
         d="m 23.708207,67.733336 -1.45638,15.365973 48.65109,28.451541 12.67859,-8.80358 z" /><path
         id="path6479"
         mask="url(#mask6496)"
         style="fill:#48ac3c;fill-opacity:1;stroke-width:0.21371"
         d="m 118.9746,9.235464 c -26.524763,0.0396 -57.722403,8.101643 -57.800753,36.001851 -0.11634,0.07447 -0.2293,0.152885 -0.34519,0.227907 l 6.73522,5.624088 C 85.321337,36.287922 109.26646,26.724198 129.20223,21.782594 118.0466,27.689557 97.930167,37.383527 83.848857,47.962125 124.90674,63.817238 131.55312,29.198241 150.78699,13.71712 144.4373,11.241751 132.61892,9.278184 119.60029,9.235884 c -0.20825,-6.8e-4 -0.41683,-7.4e-4 -0.62569,-4.2e-4 z" /><g
         id="path5238-6"
         inkscape:transform-center-x="-46.406751"
         inkscape:transform-center-y="-58.436674"
         transform="rotate(-14.621836,29.906011,69.025495)"><path
           id="path6072-7"
           style="color:#000000;fill:#f7941d;stroke-linecap:round;stroke-linejoin:round;-inkscape-stroke:none"
           d="m 41.180949,30.694253 c -0.388932,0.01065 -0.779821,0.0581 -1.167371,0.143661 -2.067224,0.456316 -3.758485,1.935748 -4.486031,3.923791 L 24.083285,66.042483 73.128353,115.08703 104.41016,103.64277 c 4.25485,-1.55701 5.45767,-7.003171 2.25413,-10.207127 L 45.734159,32.507579 C 44.517958,31.29159 42.86632,30.648121 41.180949,30.694253 Z M 18.780249,80.537722 0.37672119,130.84163 c -1.80989379,4.95427 2.99968721,9.76256 7.95351971,7.95145 L 58.632597,120.39007 Z" /></g></g><path
       style="color:#000000;fill:#000000;-inkscape-stroke:none"
       d="m -206.7181,-95.966534 -9.89844,9.900391 68.79102,68.791016 9.90039,-9.89844 z"
       id="path6066-6" /></g></svg>
